<svg xmlns="http://www.w3.org/2000/svg" xml:space="preserve" fill-rule="evenodd" stroke-linejoin="round"
     stroke-miterlimit="2" clip-rule="evenodd" viewBox="0 0 60 40"><path id="background-strips" fill="#15b6ff" d="M1.557 1.487h56.885v37.02H1.557z"/>
    <path id="background" fill="#0499dc"
          d="M1.557 30.9V1.486H17.97zM22.313 1.486h15.016L16.67 38.512H1.557v-1.086l.538.3zm24.12 0h2.807L28.582 38.512h-2.806zm6.009 0h6v37.025H31.783z"/>
    <path id="frame" fill="#2f2f2f"
          d="M60 3.09v33.82A3.09 3.09 0 0 1 56.91 40H3.09A3.09 3.09 0 0 1 0 36.91V3.09A3.09 3.09 0 0 1 3.09 0h53.82A3.09 3.09 0 0 1 60 3.09m-2.225 0a.866.866 0 0 0-.865-.865H3.09a.866.866 0 0 0-.865.865v33.82c0 .477.388.865.865.865h53.82a.866.866 0 0 0 .865-.865z"/>
    <path id="chart" fill="#2f2f2f"
          d="M7.219 4.35v1.364H3.78V4.35zm0 3.741v1.365H3.78V8.091zm0 3.742v1.365H3.78v-1.365zm0 3.742v1.365H3.78v-1.365zm0 3.742v1.365H3.78v-1.365zm0 3.742v1.365H3.78V23.06zm0 3.742v1.365H3.78v-1.365zm0 3.742v1.366H3.78v-1.366zm0 3.742v1.366H3.78v-1.366zM14.247 7.029v31.482H10.81V7.029zm5.44 1.745v29.737h-3.44V8.774zm5.44 2.301v27.436h-3.44V11.075zm5.438-1.619v29.055h-3.44V9.456zm5.44 9.861v19.194h-3.44V19.317zm5.438 1.881v17.313h-3.438V21.198zm5.439 3.227v14.086h-3.439V24.425zm5.439-2.377v16.463h-3.439V22.048z"/></svg>