<svg xmlns="http://www.w3.org/2000/svg" xml:space="preserve" fill-rule="evenodd" stroke-linejoin="round"
     stroke-miterlimit="2" clip-rule="evenodd" viewBox="0 0 60 40"><path id="background-strips" fill="#15b6ff" d="M1.557 1.487h56.885v37.02H1.557z"/>
    <path id="background" fill="#0499dc"
          d="M1.557 30.9V1.486H17.97zM22.313 1.486h15.016L16.67 38.512H1.557v-1.086l.538.3zm24.12 0h2.807L28.582 38.512h-2.806zm6.009 0h6v37.025H31.783z"/>
    <path id="frame" fill="#2f2f2f"
          d="M60 3.09v33.82A3.09 3.09 0 0 1 56.91 40H3.09A3.09 3.09 0 0 1 0 36.91V3.09A3.09 3.09 0 0 1 3.09 0h53.82A3.09 3.09 0 0 1 60 3.09m-2.225 0a.866.866 0 0 0-.865-.865H3.09a.866.866 0 0 0-.865.865v33.82c0 .477.388.865.865.865h53.82a.866.866 0 0 0 .865-.865z"/>
    <path id="chart" fill="#2f2f2f"
          d="M56.018 4.35v1.364h-3.439V4.35zm0 3.741v1.365h-3.439V8.091zm0 3.742v1.365h-3.439v-1.365zm0 3.742v1.365h-3.439v-1.365zm0 3.742v1.365h-3.439v-1.365zm0 3.742v1.365h-3.439V23.06zm0 3.742v1.365h-3.439v-1.365zm0 3.742v1.366h-3.439v-1.366zm0 3.742v1.366h-3.439v-1.366zM10.37 22.639a1.364 1.364 0 0 1-1.331 1.667 1.366 1.366 0 1 1 .232-2.711l3.876-4.084a1.36 1.36 0 0 1 1.33-1.666l.092.002 4.055-5.27a1.366 1.366 0 1 1 2.554.087l4.18 6.277a1.366 1.366 0 0 1 1.353 1.541l3.729 3.259a1.368 1.368 0 0 1 1.711 1.15l3.409 1.712a1.363 1.363 0 0 1 1.654.236l3.206-.588a1.367 1.367 0 0 1 2.105-.526l3.275-1.044a1.366 1.366 0 1 1 .46 1.446l-3.274 1.044a1.367 1.367 0 0 1-2.292.572l-3.206.588a1.366 1.366 0 0 1-2.61-.372l-3.408-1.712a1.366 1.366 0 0 1-2.029-1.364l-3.73-3.259a1.365 1.365 0 0 1-1.616-1.843l-4.18-6.277q-.046 0-.088-.003l-4.055 5.271q.071.208.072.438a1.366 1.366 0 0 1-1.597 1.346z"/></svg>